# xmcd
#
# Track frame offsets:
#	150
#	13760
#	23517
#	35614
#	46717
#	56158
#	68689
#	82677
#	94864
#	109775
#	122571
#	132059
#
# Disc length: 1917 seconds
#
# Revision: 0
# Processed by: cddbd v1.5.2PL0 Copyright (c) Steve Scherf et al.
# Submitted via: dBpowerAMP V4.0
#
DISCID=8b077b0c
DTITLE=Unknown - Country Greats 2
DYEAR=1996
DGENRE=Country
TTITLE0=Four Walls
TTITLE1=What's He Doing In My World
TTITLE2=Here I Am Again
TTITLE3=Footprints In The Snow
TTITLE4=Wildwood Flower
TTITLE5=Gentle On My Mind
TTITLE6=Lovesick Blues
TTITLE7=Eleven Roses
TTITLE8=Birmingham Trail
TTITLE9=Release Me
TTITLE10=Midnight Special
TTITLE11=Distant Drums
EXTD=
EXTT0=
EXTT1=
EXTT2=
EXTT3=
EXTT4=
EXTT5=
EXTT6=
EXTT7=
EXTT8=
EXTT9=
EXTT10=
EXTT11=
PLAYORDER=
